<?xml version="1.0" standalone="no"?>
<!DOCTYPE svg PUBLIC "-//W3C//DTD SVG 20010904//EN"
 "http://www.w3.org/TR/2001/REC-SVG-20010904/DTD/svg10.dtd">
<svg version="1.0" xmlns="http://www.w3.org/2000/svg"
 width="700.000000pt" height="700.000000pt" viewBox="0 0 700.000000 700.000000"
 preserveAspectRatio="xMidYMid meet">
<metadata>
Created by potrace 1.14, written by Peter Selinger 2001-2017
</metadata>
<g transform="translate(0.000000,700.000000) scale(0.100000,-0.100000)"
fill="#000000" stroke="none">
<path d="M3280 6809 c-332 -41 -645 -173 -898 -381 -55 -46 -82 -61 -110 -63
-20 -2 -71 -6 -112 -9 -73 -6 -119 -12 -150 -21 -8 -2 -29 -7 -47 -10 -92 -15
-266 -86 -432 -176 -129 -70 -393 -302 -523 -459 -194 -234 -334 -542 -364
-802 -11 -91 -12 -102 -13 -154 -1 -47 -6 -56 -69 -136 -139 -172 -239 -359
-303 -567 -16 -52 -32 -108 -35 -125 -2 -17 -7 -38 -9 -47 -28 -91 -41 -420
-24 -573 39 -335 169 -644 383 -905 50 -62 61 -82 62 -115 4 -96 15 -191 31
-261 4 -16 7 -32 8 -35 42 -207 171 -464 333 -658 316 -380 706 -616 1107
-668 28 -4 57 -8 65 -10 8 -1 43 -3 76 -3 59 -1 64 -3 130 -58 248 -203 575
-343 894 -381 140 -17 432 -7 563 19 29 6 63 12 77 15 14 3 70 18 125 35 209
64 462 207 618 348 20 19 40 26 70 27 411 9 811 200 1143 546 276 287 438 603
481 938 3 25 7 52 9 60 1 8 3 43 3 77 1 58 3 64 51 121 211 253 348 572 388
907 9 78 9 352 0 435 -38 341 -197 699 -417 943 -20 22 -26 40 -27 80 -1 53
-11 145 -19 188 -3 13 -8 40 -11 59 -19 109 -90 307 -152 420 -166 306 -485
620 -795 784 -199 106 -443 171 -648 175 -53 1 -60 4 -125 57 -244 200 -513
318 -864 379 -55 10 -398 13 -470 4z m375 -453 c33 -3 71 -8 85 -11 14 -3 41
-8 60 -11 66 -10 245 -75 320 -116 328 -179 584 -526 660 -893 27 -129 32
-175 33 -300 1 -231 -40 -407 -141 -595 -119 -223 -335 -429 -584 -559 l-78
-40 16 37 c73 167 122 336 139 477 3 22 7 56 10 75 13 81 6 336 -11 445 -12
73 -15 91 -19 105 -2 8 -7 29 -10 47 -24 142 -173 465 -277 598 -240 308 -473
494 -781 620 -75 31 -77 33 -50 43 108 41 237 70 343 78 47 4 86 7 87 8 4 4
137 -2 198 -8z m-1060 -457 c157 -19 338 -81 471 -161 323 -193 557 -511 629
-857 39 -189 37 -421 -7 -596 -22 -91 -49 -175 -56 -175 -5 0 -14 17 -21 38
-23 66 -121 254 -173 331 -293 436 -806 749 -1293 788 -215 18 -437 1 -628
-48 -85 -22 -247 -78 -296 -103 -18 -10 -31 -12 -31 -6 0 28 113 225 171 296
63 78 233 236 309 286 175 116 361 187 535 205 28 3 52 7 54 9 9 8 250 3 336
-7z m2613 -134 c286 -148 535 -437 636 -738 48 -145 60 -229 61 -412 0 -181
-4 -232 -28 -335 -71 -301 -244 -554 -522 -765 -51 -39 -56 -42 -161 -96 -249
-130 -510 -169 -829 -125 -48 7 -115 24 -193 49 -80 25 -81 23 13 62 101 43
338 175 365 205 3 3 28 23 55 45 358 283 619 754 662 1190 12 123 6 347 -12
450 -3 17 -8 46 -11 65 -12 72 -15 86 -25 125 -13 51 -48 164 -59 190 -5 11
-20 46 -34 78 -14 31 -20 57 -15 57 6 0 50 -20 97 -45z m-3062 -959 c73 -7
208 -40 289 -71 260 -98 518 -329 667 -598 25 -45 49 -92 52 -104 l7 -22 -49
24 c-122 59 -362 123 -527 140 -80 9 -299 8 -366 0 -122 -16 -160 -23 -272
-51 -506 -127 -980 -546 -1181 -1045 l-33 -81 -16 44 c-69 181 -96 417 -71
618 19 146 23 169 51 255 62 190 158 347 301 490 303 305 706 446 1148 401z
m4168 -950 c70 -240 65 -531 -13 -773 -42 -128 -74 -196 -145 -303 -217 -324
-606 -554 -996 -587 -246 -20 -442 6 -630 87 -267 113 -500 334 -654 622 -20
37 -36 71 -36 77 0 5 21 -1 48 -14 82 -39 265 -98 347 -111 22 -3 42 -7 45 -9
3 -2 33 -7 65 -10 33 -4 69 -9 80 -11 52 -11 363 -3 436 11 13 3 41 7 63 11
22 3 43 7 47 9 3 2 21 7 40 10 117 20 373 127 507 212 182 116 406 326 524
493 70 100 172 288 204 379 l19 53 12 -31 c7 -17 24 -69 37 -115z m-3679 -152
c95 -16 255 -61 255 -72 0 -4 -21 -16 -48 -26 -137 -55 -288 -140 -407 -229
-92 -69 -259 -234 -326 -322 -169 -220 -301 -491 -345 -708 -45 -222 -50 -455
-14 -681 18 -111 58 -253 103 -366 24 -61 40 -110 35 -110 -24 0 -192 96 -268
154 -261 197 -437 468 -506 781 -21 96 -29 349 -15 455 17 126 19 136 56 247
66 198 159 347 315 504 206 207 408 316 695 374 11 2 56 7 100 11 44 4 81 7
82 8 9 7 215 -7 288 -20z m345 -549 c0 -3 -11 -31 -24 -63 -114 -274 -155
-537 -132 -839 4 -50 8 -100 10 -110 2 -10 11 -57 20 -105 35 -185 135 -424
249 -594 53 -78 61 -90 122 -163 188 -227 419 -398 688 -511 l88 -37 -43 -16
c-309 -115 -691 -105 -992 24 -384 166 -688 567 -761 1004 -17 102 -23 309
-12 401 21 175 78 336 174 490 118 191 301 360 518 479 79 43 95 50 95 40z
m411 -302 c20 -63 118 -253 171 -333 143 -213 340 -399 568 -539 385 -234 802
-308 1258 -220 96 18 210 49 257 68 45 19 82 34 128 52 l47 19 -36 -73 c-122
-244 -331 -461 -565 -586 -184 -98 -340 -139 -564 -148 -217 -8 -358 13 -540
82 -172 66 -310 159 -460 309 -284 286 -414 657 -371 1066 13 126 67 340 86
340 5 0 14 -17 21 -37z"/>
</g>
</svg>
